<?xml version="1.0" standalone="no"?>
<!DOCTYPE svg PUBLIC "-//W3C//DTD SVG 20010904//EN"
 "http://www.w3.org/TR/2001/REC-SVG-20010904/DTD/svg10.dtd">
<svg version="1.0" xmlns="http://www.w3.org/2000/svg"
 width="890.000000pt" height="890.000000pt" viewBox="0 0 890.000000 890.000000"
 preserveAspectRatio="xMidYMid meet">
<metadata>
Created by potrace 1.14, written by Peter Selinger 2001-2017
</metadata>
<g transform="translate(0.000000,890.000000) scale(0.100000,-0.100000)"
fill="#000000" stroke="none">
<path d="M6268 8895 c-1 -2 -23 -6 -48 -9 -56 -6 -77 -11 -115 -26 -16 -6 -31
-11 -32 -11 -4 0 -73 -28 -103 -41 -14 -6 -27 -12 -30 -13 -5 -1 -34 -16 -90
-48 -19 -11 -47 -27 -62 -34 -16 -8 -28 -19 -28 -25 0 -6 -3 -8 -6 -5 -4 3
-43 -22 -87 -56 -122 -94 -252 -228 -339 -348 -17 -24 -35 -45 -40 -47 -4 -2
-8 -8 -8 -12 0 -14 -50 -60 -65 -60 -38 0 -401 -204 -413 -232 -2 -5 -10 -8
-17 -8 -7 0 -15 -4 -17 -8 -1 -4 -20 -18 -40 -31 -28 -16 -38 -19 -39 -9 -1 7
-2 67 -4 133 -2 118 -13 273 -20 284 -1 3 -6 40 -10 81 -4 41 -9 79 -12 83 -3
5 -7 23 -9 40 -4 46 -34 168 -45 189 -8 15 -19 17 -62 13 -29 -3 -59 -7 -67
-8 -20 -5 -82 -18 -100 -21 -14 -2 -80 -20 -123 -32 -15 -5 -17 -13 -12 -57 3
-29 8 -60 11 -69 5 -17 10 -42 19 -90 3 -15 9 -38 15 -52 5 -15 8 -26 5 -26
-2 0 2 -21 10 -47 7 -27 13 -55 13 -63 1 -8 7 -46 15 -85 16 -74 24 -129 32
-210 3 -27 8 -70 11 -95 7 -63 17 -470 12 -470 -3 0 -54 24 -114 54 -60 29
-138 63 -174 76 -63 21 -75 24 -130 35 -14 3 -36 7 -50 10 -94 19 -745 28
-880 13 -77 -9 -133 -19 -175 -30 -22 -5 -51 -12 -65 -14 -14 -3 -39 -9 -57
-15 -17 -5 -43 -12 -57 -15 -37 -6 -177 -51 -271 -86 -92 -34 -91 -34 -208
-87 -49 -23 -90 -41 -92 -41 -24 0 -410 -237 -459 -282 -11 -10 -23 -18 -27
-18 -4 0 -14 -6 -21 -13 -7 -7 -37 -31 -67 -55 -121 -95 -361 -323 -361 -343
0 -5 -4 -9 -9 -9 -12 0 -160 -180 -244 -296 -72 -101 -175 -264 -223 -354 -16
-30 -33 -58 -37 -61 -5 -3 -9 -9 -8 -12 0 -4 -22 -54 -49 -112 -28 -58 -50
-108 -50 -111 0 -3 -11 -30 -25 -60 -14 -30 -25 -56 -25 -59 0 -2 -5 -16 -12
-32 -6 -15 -12 -31 -13 -35 -2 -5 -4 -10 -5 -13 -1 -3 -4 -9 -5 -15 -1 -5 -3
-11 -5 -12 -1 -2 -3 -10 -5 -18 -2 -8 -17 -54 -34 -102 -16 -49 -28 -88 -26
-88 2 0 -2 -17 -10 -39 -23 -66 -74 -302 -82 -381 -9 -91 -10 -817 -1 -880 14
-95 19 -126 24 -142 3 -10 7 -28 10 -40 3 -19 52 -208 68 -268 3 -8 11 -34 20
-57 8 -24 13 -43 10 -43 -2 0 2 -12 9 -27 8 -16 25 -57 37 -93 60 -173 209
-463 317 -617 24 -34 43 -66 43 -72 0 -5 3 -11 8 -13 4 -1 34 -39 67 -83 33
-44 68 -87 78 -97 9 -10 15 -18 12 -18 -3 0 3 -8 13 -18 9 -10 40 -45 67 -77
117 -140 293 -306 550 -519 33 -28 65 -55 71 -61 6 -5 28 -23 49 -40 21 -16
43 -35 49 -40 6 -6 61 -50 121 -98 61 -49 117 -94 125 -100 8 -7 40 -30 70
-52 30 -21 57 -42 60 -45 3 -3 30 -23 60 -45 30 -22 61 -45 68 -52 7 -7 17
-13 22 -13 5 0 15 -6 22 -13 7 -7 63 -46 123 -87 61 -41 112 -78 115 -81 3 -3
12 -8 20 -12 8 -4 56 -34 105 -67 50 -33 98 -63 108 -67 9 -3 17 -9 17 -14 0
-5 5 -9 11 -9 6 0 30 -13 54 -30 24 -16 48 -30 54 -30 6 0 11 -3 11 -7 0 -5
19 -17 43 -28 23 -11 44 -23 47 -26 3 -3 24 -16 47 -28 23 -11 45 -25 48 -31
4 -6 11 -8 16 -5 5 4 9 3 9 -2 0 -4 15 -14 33 -22 17 -8 34 -17 37 -20 15 -18
553 -286 745 -371 439 -196 464 -201 660 -136 71 24 548 215 640 257 28 12 55
23 60 25 9 2 163 70 272 120 21 10 111 52 201 95 89 43 163 77 165 76 1 -1 16
8 32 19 17 12 49 29 73 39 23 11 42 23 42 29 0 5 3 7 6 3 3 -3 24 5 45 19 21
13 43 24 49 24 5 0 10 5 10 11 0 5 4 8 9 4 5 -3 15 0 23 7 7 7 27 20 43 28 17
8 53 29 82 47 29 18 54 33 57 33 6 0 164 98 283 176 83 54 372 261 383 274 3
3 25 21 50 39 25 19 52 41 60 50 8 9 24 23 36 31 51 36 149 127 294 270 162
161 187 188 283 305 31 38 63 77 70 85 41 49 213 294 230 330 4 8 23 40 42 70
39 63 182 348 190 380 1 3 5 14 10 25 44 108 99 268 110 325 2 8 8 26 13 40 5
14 10 28 10 33 0 4 3 20 6 35 4 15 8 36 10 47 3 11 9 40 15 65 5 25 13 68 17
95 3 28 8 59 10 70 35 184 34 624 -3 830 -2 17 -6 44 -8 60 -18 156 -99 473
-166 650 -10 28 -19 55 -19 60 0 6 -6 22 -14 37 -8 14 -19 43 -26 65 -7 21
-22 58 -35 83 -12 25 -22 47 -22 50 0 3 -28 64 -62 135 -71 150 -162 314 -238
433 -29 45 -53 87 -53 92 0 6 -4 10 -9 10 -5 0 -13 9 -16 20 -3 11 -12 26 -19
32 -6 7 -27 36 -46 63 -45 67 -149 204 -172 227 -10 10 -16 18 -13 18 2 0 -6
10 -18 23 -12 12 -47 51 -77 86 -30 35 -63 73 -73 85 -10 12 -31 36 -45 55
-15 19 -33 40 -40 47 -15 16 -5 21 178 83 69 23 134 46 145 51 11 5 49 19 85
31 36 12 71 27 78 32 6 5 12 7 12 3 0 -4 17 2 38 13 20 10 39 19 42 19 13 1
50 15 98 38 59 27 65 44 33 110 -29 61 -81 173 -83 182 -1 7 -42 98 -75 171
-8 18 -16 39 -18 45 -9 43 -169 381 -186 391 -5 4 -7 11 -4 16 4 5 1 9 -4 9
-6 0 -11 5 -11 11 0 6 -18 38 -40 71 -22 33 -40 62 -40 64 0 6 -98 133 -150
195 -66 77 -228 236 -277 272 -24 17 -43 34 -43 39 0 4 -5 8 -11 8 -6 0 -28
14 -49 30 -21 17 -41 30 -44 30 -3 0 -29 15 -58 33 -61 38 -145 78 -203 97
-22 7 -44 15 -50 19 -5 3 -14 6 -20 7 -41 8 -74 15 -95 20 -27 6 -376 15 -382
9z m-1011 -1004 c8 -36 15 -70 17 -76 4 -20 38 -131 46 -150 25 -66 31 -98 22
-107 -6 -6 -32 -11 -59 -13 -26 -2 -75 -6 -108 -9 -53 -6 -89 -12 -202 -32
-46 -8 -166 -41 -293 -79 -42 -13 -62 -16 -66 -12 -3 3 0 34 7 69 13 72 54
155 80 163 9 3 20 12 23 20 3 8 12 15 20 15 8 0 16 4 18 8 3 9 175 132 183
132 3 0 27 16 55 36 27 19 89 58 137 85 100 56 96 57 120 -50z"/>
</g>
</svg>
