<svg xmlns="http://www.w3.org/2000/svg" version="1.1" xmlns:xlink="http://www.w3.org/1999/xlink" width="512"
    height="512" x="0" y="0" viewBox="0 0 512 512">
    <g>
        <path
            d="M426 60h-85V35c0-19.299-15.701-35-35-35H206c-19.299 0-35 15.701-35 35v25H86c-24.853 0-45 20.147-45 45v12c0 8.284 6.716 15 15 15h400c8.284 0 15-6.716 15-15v-12c0-24.853-20.147-45-45-45zM201 35c0-2.757 2.243-5 5-5h100c2.757 0 5 2.243 5 5v25H201zM107.045 463.245C110.221 491.04 133.713 512 161.689 512h188.622c27.976 0 51.468-20.96 54.644-48.755L439.383 162H72.617zm216.648-12.101 13.143-230c.473-8.271 7.561-14.592 15.831-14.12 8.271.473 14.592 7.561 14.12 15.831l-13.143 230c-.473 8.271-7.561 14.593-15.831 14.12-8.271-.472-14.592-7.56-14.12-15.831zM241 222c0-8.284 6.716-15 15-15s15 6.716 15 15v230c0 8.284-6.716 15-15 15s-15-6.716-15-15zm-81.668-14.976c8.271-.473 15.359 5.849 15.832 14.12l13.143 230c.473 8.271-5.849 15.359-14.12 15.831-8.271.473-15.359-5.849-15.831-14.12l-13.143-230c-.473-8.27 5.848-15.358 14.119-15.831z">
        </path>
    </g>
</svg>